<!DOCTYPE svg PUBLIC "-//W3C//DTD SVG 20010904//EN" "http://www.w3.org/TR/2001/REC-SVG-20010904/DTD/svg10.dtd"[]><svg version="1.0" xmlns="http://www.w3.org/2000/svg" width="80" height="80" viewBox="0 0 600.000000 514.000000" preserveAspectRatio="xMidYMid meet"><g transform="translate(0.000000,514.000000) scale(0.100000,-0.100000)" fill="#b30517" stroke="none"><path fill="black" d="M3657 4034 c-16 -5 -17 -47 -15 -747 l3 -742 305 -3 c307 -3 407 4 493 34 l40 14 -46 -40 c-88 -77 -136 -225 -124 -380 11 -138 55 -227 138 -281 27 -17 49 -34 49 -38 0 -3 -25 -27 -54 -53 -80 -71 -109 -137 -114 -259 -9 -212 75 -334 266 -384 55 -15 125 -19 405 -24 187 -3 344 -3 350 1 11 7 35 1493 24 1505 -4 3 -159 8 -344 10 -336 5 -411 0 -488 -32 -11 -5 1 12 26 37 57 57 86 118 105 217 36 184 -25 374 -140 436 -20 11 -36 22 -36 25 0 3 23 28 52 55 28 28 63 75 77 105 23 49 26 67 26 170 0 103 -3 121 -26 170 -35 74 -67 111 -128 143 -92 51 -156 58 -506 62 -176 2 -328 2 -338 -1z m525 -345 c56 -30 68 -213 16 -268 -15 -17 -31 -21 -83 -21 l-65 0 0 143 c0 79 3 147 7 150 10 11 102 8 125 -4z m27 -553 c28 -26 41 -77 40 -161 -1 -133 -29 -167 -134 -163 l-60 3 -3 174 -2 173 69 -4 c50 -2 75 -9 90 -22z m751 -920 c0 -90 -3 -171 -6 -180 -8 -21 -104 -22 -143 -2 -34 18 -47 46 -56 119 -12 91 2 165 35 199 26 25 35 28 99 28 l71 0 0 -164z m-15 -586 l0 -155 -56 -3 c-48 -2 -61 1 -85 22 -28 23 -29 29 -32 119 -6 142 23 179 133 174 l40 -2 0 -155z" /><path d="M1920 3981 c-53 -16 -97 -46 -164 -110 -182 -176 -149 -306 97 -382 193 -60 468 32 492 164 18 94 -133 277 -264 322 -47 16 -119 18 -161 6z" /><path d="M1020 3444 c-184 -49 -270 -144 -270 -296 0 -122 58 -274 120 -316 71 -48 181 -11 291 99 91 91 142 216 143 349 1 89 -20 135 -74 162 -43 22 -133 23 -210 2z" /><path d="M1481 3433 c-37 -38 -51 -88 -51 -188 0 -100 14 -150 51 -188 28 -28 33 -29 102 -25 142 7 267 112 267 225 0 31 -8 44 -53 87 -68 67 -153 109 -228 114 -54 4 -60 2 -88 -25z" /><path d="M2310 3424 c-149 -71 -201 -157 -149 -244 52 -86 133 -139 231 -147 119 -11 160 36 166 188 9 224 -70 288 -248 203z" /><path d="M2760 3442 c-54 -27 -75 -73 -74 -162 2 -188 109 -365 268 -445 60 -30 117 -32 161 -5 69 42 131 216 122 340 -7 109 -61 187 -163 235 -115 55 -248 70 -314 37z" /><path d="M1933 3169 c-35 -33 -73 -104 -73 -135 1 -45 41 -64 135 -64 75 0 110 11 125 41 16 29 -11 99 -58 151 -44 49 -84 52 -129 7z" /><path d="M1510 2933 c-8 -3 -23 -12 -32 -21 -52 -45 24 -222 96 -222 33 0 90 67 116 138 24 62 20 84 -16 100 -25 12 -136 15 -164 5z" /><path d="M2313 2929 c-12 -7 -24 -18 -28 -27 -17 -45 78 -204 126 -210 47 -6 119 98 119 171 0 54 -28 72 -119 74 -42 2 -86 -2 -98 -8z" /><path d="M1183 2776 c-123 -59 -190 -138 -176 -207 14 -71 174 -185 275 -196 34 -4 50 0 78 19 76 52 105 218 56 324 -48 102 -110 119 -233 60z" /><path d="M2629 2795 c-70 -38 -101 -217 -57 -325 26 -62 73 -100 122 -100 40 0 149 52 204 97 133 109 103 206 -94 309 -72 37 -130 44 -175 19z" /><path d="M1536 2479 c-41 -32 -78 -113 -74 -162 3 -37 7 -44 38 -59 51 -26 149 -24 184 3 32 25 32 40 1 107 -29 63 -58 102 -88 119 -29 16 -30 16 -61 -8z" /><path d="M2380 2474 c-36 -31 -74 -94 -88 -146 -19 -69 31 -97 144 -83 65 8 94 31 94 76 0 44 -57 147 -91 165 -26 13 -30 12 -59 -12z" /><path d="M895 2366 c-59 -27 -98 -91 -130 -211 -57 -222 37 -364 280 -420 146 -34 230 4 254 113 19 89 -10 219 -73 326 -14 24 -53 69 -87 100 -98 88 -183 120 -244 92z" /><path d="M2999 2366 c-78 -20 -178 -104 -238 -200 -53 -86 -73 -164 -69 -272 3 -95 3 -96 39 -129 48 -43 115 -53 210 -31 129 30 233 97 275 178 22 43 29 150 15 218 -16 73 -76 196 -105 215 -41 27 -78 33 -127 21z" /><path d="M1923 2210 c-70 -16 -78 -46 -37 -128 28 -57 75 -102 105 -102 54 0 153 147 131 195 -17 37 -118 55 -199 35z" /><path d="M1525 2153 c-34 -9 -72 -53 -85 -99 -17 -59 -9 -218 13 -261 9 -17 29 -41 44 -53 38 -30 103 -22 191 25 142 75 190 152 148 233 -23 43 -97 109 -146 131 -48 20 -132 33 -165 24z" /><path d="M2363 2150 c-79 -16 -153 -70 -207 -150 -23 -35 -20 -91 7 -131 45 -68 194 -149 272 -149 79 0 125 87 125 234 -1 158 -64 222 -197 196z" /><path d="M1918 1710 c-115 -18 -233 -81 -264 -142 -35 -69 8 -172 112 -267 151 -139 297 -139 447 -1 71 65 113 124 128 182 11 39 10 50 -7 84 -47 97 -255 169 -416 144z" /></g></svg>